<svg width="32" height="32" viewBox="0 0 32 32" fill="none" xmlns="http://www.w3.org/2000/svg">
<path fill-rule="evenodd" clip-rule="evenodd" d="M19.9534 19.0066H21.0068L27.6601 25.6733L25.6734 27.66L19.0068 21.0066V19.9533L18.6468 19.58C17.1268 20.8866 15.1534 21.6733 13.0068 21.6733C8.22009 21.6733 4.34009 17.7933 4.34009 13.0066C4.34009 8.21997 8.22009 4.33997 13.0068 4.33997C17.7934 4.33997 21.6734 8.21997 21.6734 13.0066C21.6734 15.1533 20.8868 17.1266 19.5801 18.6466L19.9534 19.0066ZM7.00675 13.0066C7.00675 16.3266 9.68676 19.0066 13.0068 19.0066C16.3268 19.0066 19.0068 16.3266 19.0068 13.0066C19.0068 9.68663 16.3268 7.00663 13.0068 7.00663C9.68676 7.00663 7.00675 9.68663 7.00675 13.0066Z" fill="black" fill-opacity="0.54"/>
</svg>
