<svg width="32" height="32" viewBox="0 0 32 32" fill="none" xmlns="http://www.w3.org/2000/svg">
<path fill-rule="evenodd" clip-rule="evenodd" d="M19.9533 19.0067H21.0067L27.66 25.6733L25.6733 27.66L19.0067 21.0067V19.9533L18.6467 19.58C17.1267 20.8867 15.1533 21.6733 13.0067 21.6733C8.22 21.6733 4.34 17.7933 4.34 13.0067C4.34 8.22 8.22 4.34 13.0067 4.34C17.7933 4.34 21.6733 8.22 21.6733 13.0067C21.6733 15.1533 20.8867 17.1267 19.58 18.6467L19.9533 19.0067ZM7.00667 13.0067C7.00667 16.3267 9.68667 19.0067 13.0067 19.0067C16.3267 19.0067 19.0067 16.3267 19.0067 13.0067C19.0067 9.68666 16.3267 7.00666 13.0067 7.00666C9.68667 7.00666 7.00667 9.68666 7.00667 13.0067Z" fill="black" fill-opacity="0.54"/>
</svg>
